#!OML:ASF I:\Actors\actors\Patient Classification 2\Patient 1\Session 1\actor1.ASF
:FULLY-SPECIFIED
:DEGREES
135
root -0.872354 17.9951 4.62907 17.5201 1.28314 -2.96125
lowerback 27.0574 0.185394 2.36155
upperback 3.82404 0.993301 0.667956
thorax -10.7246 0.378108 -0.960198
lowerneck -13.5356 -2.35547 -2.47656
upperneck 4.29901 -3.06526 4.20585
head 3.98637 -1.35618 1.63298
rclavicle -1.80149e-015 -5.46658e-016
rhumerus -69.1236 -1.25688 -96.6631
rradius 114.78
rwrist 25.9097
rhand -13.3387 -41.9215
rfingers 7.12502
rthumb 12.7667 -71.5112
lclavicle -1.80149e-015 -5.46658e-016
lhumerus -55.1004 -7.23323 98.6277
lradius 121.149
lwrist -18.0946
lhand 26.4178 -3.14849
lfingers 7.12502
lthumb 50.4595 17.8296
rfemur -34.9274 -11.4907 20.2096
rtibia 38.6963
rfoot -20.6546 1.36712
rtoes -14.6354
lfemur -42.1931 10.4416 -12.3296
ltibia 46.4102
lfoot -19.1598 -3.2943
ltoes -57.1156
136
root -0.873579 17.9768 4.61294 17.8035 1.45112 -2.92588
lowerback 27.1622 0.112144 2.49116
upperback 3.80199 0.939758 0.661022
thorax -10.8035 0.346939 -1.02504
lowerneck -13.0554 -2.41365 -2.57221
upperneck 3.13357 -3.11408 4.41622
head 3.48781 -1.38695 1.71349
rclavicle 5.09386e-015 1.68967e-015
rhumerus -69.2564 -1.0589 -96.8376
rradius 114.809
rwrist 25.5093
rhand -12.3486 -42.2208
rfingers 7.12502
rthumb 13.721 -71.7484
lclavicle 5.09386e-015 1.68967e-015
lhumerus -55.1265 -7.31475 98.6182
lradius 121.152
lwrist -17.9768
lhand 26.1623 -3.22044
lfingers 7.12502
lthumb 50.226 17.8828
rfemur -35.5755 -11.8291 20.3428
rtibia 39.2108
rfoot -20.677 1.63457
rtoes -14.5
lfemur -42.8029 10.4243 -12.4216
ltibia 46.7279
lfoot -19.2021 -3.4225
ltoes -57.1263
137
root -0.873575 17.9628 4.60038 18.0632 1.55619 -2.89487
lowerback 27.1446 0.0634754 2.33222
upperback 3.83663 0.847805 0.801948
thorax -10.7629 0.315071 -0.741769
lowerneck -12.3565 -2.38317 -2.62919
upperneck 1.55417 -3.0242 4.37884
head 2.80176 -1.36523 1.712
rclavicle -2.36057e-015 -4.57205e-015
rhumerus -69.276 -0.530188 -96.8657
rradius 114.766
rwrist 25.1829
rhand -11.689 -42.2219
rfingers 7.12502
rthumb 14.3566 -71.7055
lclavicle -2.36057e-015 -4.57205e-015
lhumerus -55.0684 -7.01517 98.6537
lradius 121.262
lwrist -18.1211
lhand 25.934 -3.31682
lfingers 7.12502
lthumb 50.0173 17.8968
rfemur -36.1147 -12.0671 20.4429
rtibia 39.5851
rfoot -20.672 1.84477
rtoes -14.4271
lfemur -43.3006 10.3158 -12.4689
ltibia 46.9626
lfoot -19.2381 -3.46352
ltoes -57.0049
138
root -0.873864 17.9524 4.59174 18.3311 1.57583 -2.83873
lowerback 27.2512 0.0294426 2.47883
upperback 3.74649 0.839681 0.702935
thorax -10.9176 0.300455 -0.936206
lowerneck -11.7543 -2.49358 -2.60964
upperneck 0.00327038 -3.14231 4.49327
head 2.17078 -1.43955 1.73578
rclavicle -5.24295e-015 -7.15625e-015
rhumerus -69.3803 -0.554242 -97.0003
rradius 114.693
rwrist 25.1736
rhand -11.9115 -42.1298
rfingers 7.12502
rthumb 14.1423 -71.6285
lclavicle -5.24295e-015 -7.15625e-015
lhumerus -55.2223 -7.0802 98.4649
lradius 121.43
lwrist -18.2553
lhand 25.3998 -3.53283
lfingers 7.12502
lthumb 49.528 17.9343
rfemur -36.5935 -12.1746 20.4772
rtibia 39.8441
rfoot -20.6541 1.97707
rtoes -14.2683
lfemur -43.7225 10.2026 -12.5405
ltibia 47.1262
lfoot -19.2797 -3.44368
ltoes -56.8251
139
root -0.873915 17.9467 4.58684 18.5585 1.55621 -2.78859
lowerback 27.3843 0.0220242 2.65232
upperback 3.64279 0.872666 0.586635
thorax -11.0997 0.302033 -1.18106
lowerneck -11.1758 -2.66252 -2.55076
upperneck -1.62945 -3.3369 4.55554
head 1.53228 -1.55598 1.73516
rclavicle 5.66536e-015 4.29872e-015
rhumerus -69.4964 -0.705613 -97.0323
rradius 114.648
rwrist 25.4767
rhand -12.6849 -42.0683
rfingers 7.12502
rthumb 13.3969 -71.6175
lclavicle 5.66536e-015 4.29872e-015
lhumerus -55.3948 -7.17216 98.2284
lradius 121.532
lwrist -18.4046
lhand 24.8238 -3.89572
lfingers 7.12502
lthumb 48.9993 17.837
rfemur -36.9659 -12.211 20.4849
rtibia 40.0208
rfoot -20.6545 2.06296
rtoes -14.0526
lfemur -44.0364 10.1082 -12.6032
ltibia 47.2382
lfoot -19.3336 -3.38579
ltoes -56.6938
140
root -0.873007 17.9441 4.58413 18.8007 1.48906 -2.74072
lowerback 27.4151 0.0538606 2.68221
upperback 3.55845 0.920773 0.552851
thorax -11.2097 0.319454 -1.25451
lowerneck -10.6896 -2.83932 -2.53004
upperneck -3.24025 -3.53475 4.51812
head 0.929022 -1.67593 1.71446
rclavicle 4.4975e-015 8.00108e-015
rhumerus -69.6151 -0.692669 -96.9446
rradius 114.658
rwrist 25.7107
rhand -13.5715 -41.8722
rfingers 7.12502
rthumb 12.5422 -71.4758
lclavicle 4.4975e-015 8.00108e-015
lhumerus -55.4933 -7.13899 98.0461
lradius 121.562
lwrist -18.5301
lhand 24.2841 -4.18223
lfingers 7.12502
lthumb 48.5031 17.7924
rfemur -37.3169 -12.1737 20.4678
rtibia 40.1381
rfoot -20.6554 2.13795
rtoes -13.7475
lfemur -44.3255 10.0554 -12.6859
ltibia 47.2994
lfoot -19.3961 -3.26906
ltoes -56.6528
141
root -0.871486 17.9417 4.58138 19.0699 1.38236 -2.68368
lowerback 27.3851 0.107058 2.61682
upperback 3.47161 0.971841 0.561737
thorax -11.2934 0.343798 -1.22521
lowerneck -10.321 -3.01545 -2.66836
upperneck -4.7325 -3.71855 4.57654
head 0.400047 -1.7827 1.75891
rclavicle -8.19987e-015 -1.01877e-014
rhumerus -69.7 -0.56635 -96.8785
rradius 114.646
rwrist 25.6969
rhand -12.2242 -41.5351
rfingers 7.12502
rthumb 13.8409 -71.0546
lclavicle -8.19987e-015 -1.01877e-014
lhumerus -55.5619 -7.05419 97.9278
lradius 121.59
lwrist -18.607
lhand 23.5722 -4.31803
lfingers 7.12502
lthumb 47.8471 17.9658
rfemur -37.6807 -12.0768 20.4289
rtibia 40.2057
rfoot -20.6608 2.18894
rtoes -13.4859
lfemur -44.6228 10.0279 -12.8006
ltibia 47.3113
lfoot -19.4463 -3.07953
ltoes -56.7377
142
root -0.876715 17.9427 4.58241 19.3127 1.28585 -2.60591
lowerback 27.3388 0.17358 2.44906
upperback 3.38418 1.01177 0.586347
thorax -11.3721 0.36826 -1.1149
lowerneck -10.084 -3.19628 -2.7597
upperneck -6.03725 -3.91991 4.58236
head -0.0438556 -1.89552 1.78111
rclavicle 1.2921e-015 -2.83268e-015
rhumerus -69.7103 -0.468009 -96.8197
rradius 114.563
rwrist 25.718
rhand -14.0045 -41.6304
rfingers 7.12502
rthumb 12.1248 -71.2591
lclavicle 1.2921e-015 -2.83268e-015
lhumerus -55.7082 -6.97064 97.8313
lradius 121.643
lwrist -18.72
lhand 22.7649 -4.51714
lfingers 7.12502
lthumb 47.1015 18.1042
rfemur -37.9635 -11.9513 20.3828
rtibia 40.2328
rfoot -20.7237 2.15436
rtoes -13.5472
lfemur -44.8477 10.0662 -12.9263
ltibia 47.2792
lfoot -19.4667 -2.97448
ltoes -56.8405
143
root -0.888308 17.9491 4.58958 19.5347 1.18699 -2.51949
lowerback 27.2327 0.272626 2.19451
upperback 3.29036 1.06765 0.617806
thorax -11.4284 0.404745 -0.951874
lowerneck -9.96625 -3.40424 -2.7445
upperneck -7.06976 -4.17714 4.53043
head -0.382188 -2.03476 1.76519
rclavicle 2.48481e-016 4.96962e-016
rhumerus -69.7048 -0.424526 -96.7533
rradius 114.476
rwrist 25.7663
rhand -12.1102 -41.4848
rfingers 7.12502
rthumb 13.9508 -70.9968
lclavicle 2.48481e-016 4.96962e-016
lhumerus -55.9198 -6.95462 97.744
lradius 121.675
lwrist -18.9115
lhand 21.8444 -4.92252
lfingers 7.12502
lthumb 46.2492 18.0675
rfemur -38.1624 -11.7959 20.3348
rtibia 40.2282
rfoot -20.8087 2.07693
rtoes -13.6548
lfemur -44.9942 10.2003 -13.0534
ltibia 47.2125
lfoot -19.4573 -2.98892
ltoes -56.8258
144
root -0.890543 17.9544 4.59442 19.7572 1.09654 -2.4632
lowerback 27.1357 0.329215 2.07113
upperback 3.17512 1.10781 0.646005
thorax -11.5123 0.427775 -0.862737
lowerneck -9.87725 -3.61169 -2.93078
upperneck -7.93864 -4.41352 4.68714
head -0.654832 -2.15637 1.85414
rclavicle -1.93815e-015 -1.17283e-014
rhumerus -69.6632 -0.417242 -96.4827
rradius 114.4
rwrist 26.0056
rhand -13.3895 -41.4184
rfingers 7.12502
rthumb 12.7177 -71.0111
lclavicle -1.93815e-015 -1.17283e-014
lhumerus -56.1447 -6.97939 97.7023
lradius 121.731
lwrist -19.1546
lhand 20.8314 -5.30577
lfingers 7.12502
lthumb 45.3088 18.0711
rfemur -38.373 -11.7294 20.314
rtibia 40.1921
rfoot -20.8294 2.05849
rtoes -13.8182
lfemur -45.158 10.271 -13.1621
ltibia 47.1389
lfoot -19.4521 -2.93388
ltoes -56.7841
